<?xml version="1.0" encoding="utf-8"?>
<svg version="1.1" id="Layer_1" xmlns="http://www.w3.org/2000/svg" xmlns:xlink="http://www.w3.org/1999/xlink" x="0px" y="0px"
	 viewBox="0 0 2400 1600" enable-background="new 0 0 2400 1600" xml:space="preserve">
<g>
	<rect id="rect8155" fill="#003399" width="2400" height="1600"/>
	<g>
		<path id="use8167" fill="#FFCC00" d="M1200,186.353l19.956,61.41l64.57,0.002l-52.237,37.956l19.951,61.411L1200,309.18
			l-52.24,37.951l19.951-61.411l-52.237-37.956l64.57-0.002L1200,186.353z"/>
		<path id="use8169" fill="#FFCC00" d="M1200,1252.868l19.956,61.409l64.57,0.003l-52.237,37.956l19.951,61.412l-52.24-37.951
			l-52.24,37.951l19.951-61.412l-52.237-37.956l64.57-0.003L1200,1252.868z"/>
		<path id="use8171" fill="#FFCC00" d="M1733.257,719.61l19.956,61.41l64.57,0.002l-52.237,37.956l19.951,61.411l-52.24-37.951
			l-52.24,37.951l19.951-61.411l-52.237-37.956l64.57-0.002L1733.257,719.61z"/>
		<path id="use8173" fill="#FFCC00" d="M666.743,719.61l19.956,61.41l64.57,0.002l-52.237,37.956l19.951,61.411l-52.24-37.951
			l-52.24,37.951l19.951-61.411l-52.237-37.956l64.57-0.002L666.743,719.61z"/>
		<path id="use8175" fill="#FFCC00" d="M1662.156,452.982l19.956,61.41l64.57,0.002l-52.237,37.956l19.951,61.411l-52.24-37.951
			l-52.24,37.951l19.951-61.411l-52.237-37.956l64.57-0.002L1662.156,452.982z"/>
		<path id="use8177" fill="#FFCC00" d="M1466.629,257.454l19.956,61.41l64.57,0.002l-52.237,37.956l19.951,61.411l-52.24-37.951
			l-52.24,37.951l19.951-61.411l-52.237-37.956l64.57-0.002L1466.629,257.454z"/>
		<path id="use8179" fill="#FFCC00" d="M933.371,1181.767l19.956,61.409l64.57,0.003l-52.237,37.956l19.951,61.412l-52.24-37.952
			l-52.24,37.952l19.951-61.412l-52.237-37.956l64.57-0.003L933.371,1181.767z"/>
		<path id="use8181" fill="#FFCC00" d="M737.844,986.239l19.956,61.41l64.57,0.002l-52.237,37.956l19.951,61.412l-52.24-37.952
			l-52.24,37.952l19.951-61.412l-52.237-37.956l64.57-0.002L737.844,986.239z"/>
		<path id="use8183" fill="#FFCC00" d="M737.844,452.982l19.956,61.41l64.57,0.002l-52.237,37.956l19.951,61.411l-52.24-37.951
			l-52.24,37.951l19.951-61.411l-52.237-37.956l64.57-0.002L737.844,452.982z"/>
		<path id="use8185" fill="#FFCC00" d="M1662.156,986.239l19.956,61.41l64.57,0.002l-52.237,37.956l19.951,61.412l-52.24-37.952
			l-52.24,37.952l19.951-61.412l-52.237-37.956l64.57-0.002L1662.156,986.239z"/>
		<path id="use8187" fill="#FFCC00" d="M933.371,257.454l19.956,61.41l64.57,0.002l-52.237,37.956l19.951,61.411l-52.24-37.951
			l-52.24,37.951l19.951-61.411l-52.237-37.956l64.57-0.002L933.371,257.454z"/>
		<path id="use8189" fill="#FFCC00" d="M1466.629,1181.767l19.956,61.409l64.57,0.003l-52.237,37.956l19.951,61.412l-52.24-37.952
			l-52.24,37.952l19.951-61.412l-52.237-37.956l64.57-0.003L1466.629,1181.767z"/>
	</g>
	<g>
		<path fill="#FFFFFF" d="M1399.445,721.614h-398.891c-34.102,0-61.748,27.645-61.748,61.748v294.414c0,34.102,27.645,61.748,61.748,61.748h398.891
			c34.102,0,61.748-27.645,61.748-61.748V783.362C1461.193,749.259,1433.548,721.614,1399.445,721.614z M1226.708,935.939
			c0.495,2.061,0.764,4.208,0.764,6.416v52.817c0,15.207-12.442,27.649-27.649,27.649c-15.207,0-27.649-12.442-27.649-27.649
			v-52.817c0-2.273,0.284-4.483,0.807-6.6c-15.245-9.178-25.443-25.886-25.443-44.977c0-28.974,23.489-52.463,52.463-52.463
			c28.974,0,52.463,23.488,52.463,52.463C1252.463,909.999,1242.125,926.802,1226.708,935.939z"/>
		<path fill="#FFFFFF" d="M1261.738,470.858c-19.727-7.176-39.903-10.413-60.35-10.381c-20.447-0.032-43.4,3.204-63.127,10.381
			c-91.914,33.438-125.3,115.952-120.7,225.182h76.301c-4.284-75.272,15.163-125.992,62.696-147.656
			c27.538-12.551,59.343-12.551,86.881,0c47.533,21.665,66.981,72.385,62.696,147.656h76.301
			C1387.038,586.809,1353.652,504.295,1261.738,470.858z"/>
	</g>
	<path fill="none" stroke="#000000" stroke-width="0.7967" stroke-miterlimit="10" d="M1837.378,800c0,2.027-0.01,4.052-0.028,6.074
		"/>
	<g>
		<path d="M1268.4,102.046l-1.904,36.504l-12.931-0.675l-0.338-6.899c-10.448,12.058-32.778,9.555-42.938-4.734
			c-10.232-14.361-8.21-37.032,4.191-48.801c17.526-16.634,51.522-8.615,53.268,17.989l-19.594-1.022
			c-1.938-11.254-15.155-11.307-20.35-3.755c-3.657,5.358-9.051,30.845,9.51,31.813c6.299,0.329,10.214-2.061,11.744-7.167
			l-8.753-0.457l0.742-14.223L1268.4,102.046z"/>
		<path d="M1285.548,73.899c31.041,4.931,42.322,4.934,51.211,16c14.05,17.609,7.146,60.535-32.614,54.219l-29.019-4.609
			L1285.548,73.899z M1302.975,93.711l-5.141,32.363c7.921,1.258,13.873,2.978,18.825-0.943c7.625-6.126,11.776-27.375-7.907-30.502
			L1302.975,93.711z"/>
		<path d="M1361.325,86.933c27.591,7.315,39.801,9.587,45.671,16.231c12.075,13.669,3.161,44.218-25.605,36.591l-12.193-3.233
			l-5.259,19.832l-19.64-5.207L1361.325,86.933z M1376.829,107.736l-3.649,13.767c9.317,2.471,16.943,6.049,19.115-2.145
			C1394.538,110.901,1385.891,110.139,1376.829,107.736z"/>
		<path d="M1429.668,105.787c33.462,12.602,40.588,14.392,45.761,20.64c9.948,12.186,1.004,29.554-11.944,30.304
			c10.646,8.518-1.11,26.152,0.466,32.956l-18.876-7.109c0.671-10.667,9.563-21.408-3.559-26.352l-7.997-3.012l-8.25,21.904
			l-19.015-7.161L1429.668,105.787z M1443.242,127.396l-4.774,12.676c10.31,3.883,17.653,8.236,20.598,0.414
			C1461.943,132.845,1452.054,130.714,1443.242,127.396z"/>
		<path d="M1564.323,200.698l-17.599,32.038l-11.349-6.234l2.698-6.359c-14.652,6.309-33.671-5.657-36.601-22.946
			c-2.958-17.354,8.69-36.904,25.009-42.115c23.157-7.395,50.086,14.789,40.133,39.375l-17.197-9.447
			c3.154-10.979-8.722-16.774-16.688-12.235c-5.583,3.209-21.618,23.807-5.28,32.782c5.528,3.037,10.093,2.589,13.692-1.342
			l-7.682-4.22l6.857-12.483L1564.323,200.698z"/>
		<path d="M1591.98,182.814c25.53,17.767,35.948,22.854,39.136,36.701c4.951,21.829-19.772,57.713-52.967,34.611l-24.116-16.783
			L1591.98,182.814z M1599.043,208.236l-18.718,26.896c6.583,4.581,11.193,8.722,17.358,7.348
			c9.532-2.194,22.519-19.519,6.161-30.902L1599.043,208.236z"/>
		<path d="M1654.502,227.517c21.737,18.635,31.68,25.932,34.081,34.465c4.959,17.642-16.473,41.109-38.963,21.829l-9.577-8.211
			l-13.354,15.577l-15.426-13.225L1654.502,227.517z M1659.426,252.991l-9.27,10.813c7.324,6.279,12.634,12.808,18.148,6.375
			C1674.018,263.516,1666.483,259.041,1659.426,252.991z"/>
		<path d="M1707.817,274.139c24.502,25.654,30.331,30.517,32.298,38.431c3.694,15.336-11.935,27.057-23.896,22.135
			c5.896,12.272-12.34,23.129-13.86,29.903l-13.932-14.586c5.215-9.314,17.899-15.147,8.211-25.291l-5.902-6.18l-16.926,16.167
			l-14.034-14.693L1707.817,274.139z M1710.687,299.496l-9.795,9.355c7.617,7.976,12.342,15.069,18.384,9.298
			C1725.193,312.499,1717.126,306.238,1710.687,299.496z"/>
		<path d="M1788.123,417.93l-29.714,21.289l-7.541-10.525l5.181-4.569c-15.942-0.64-27.919-19.651-23.093-36.508
			c4.839-16.956,23.816-29.522,40.752-27.174c23.968,3.323,38.861,34.902,19.179,52.851l-11.427-15.95
			c7.586-8.536-0.618-18.896-9.764-18.245c-6.422,0.481-29.783,12.129-18.926,27.282c3.673,5.127,7.982,6.696,12.928,4.706
			l-5.104-7.125l11.578-8.295L1788.123,417.93z"/>
		<path d="M1820.807,413.763c15.509,27.339,22.542,36.157,19.438,50.007c-4.998,21.961-42.857,43.346-62.722,8.329l-14.498-25.556
			L1820.807,413.763z M1816.191,439.741l-28.501,16.169c3.957,6.976,6.326,12.702,12.479,14.126
			c9.404,2.108,28.788-7.788,18.908-25.207L1816.191,439.741z"/>
		<path d="M1857.889,481.126c11.733,26.664,17.332,37.128,15.81,45.819c-3.164,18.058-32.638,29.937-44.571,2.818l-5.081-11.547
			l-18.779,8.264l-8.185-18.598L1857.889,481.126z M1851.304,506.222l-13.036,5.737c3.882,8.822,5.844,17.016,13.603,13.601
			C1859.838,522.054,1855.132,514.923,1851.304,506.222z"/>
		<path d="M1885.786,546.27c10.944,33.744,14.087,40.655,12.425,48.638c-3.31,15.342-22.443,19.253-31.134,9.575
			c-0.014,13.615-21.164,15.49-25.462,20.928l-6.224-19.187c8.748-6.133,22.7-5.883,18.371-19.224l-2.637-8.129l-22.264,7.222
			l-6.269-19.327L1885.786,546.27z M1877.369,570.36l-12.885,4.179c3.406,10.497,4.582,18.932,12.529,16.354
			C1884.78,588.375,1880.277,579.325,1877.369,570.36z"/>
		<path d="M1895.624,710.726l-36.019,6.23l-2.207-12.759l6.653-1.858c-14.073-7.515-16.58-29.847-4.896-42.92
			c11.716-13.136,34.264-16.229,48.517-6.724c20.329,13.556,19.582,48.401-5.74,55.929l-3.345-19.334
			c10.546-4.382,7.671-17.281-0.847-20.676c-5.9-2.326-32.106-2.125-28.916,16.322c1.075,6.215,4.272,9.503,9.591,9.864
			l-1.494-8.637l14.034-2.427L1895.624,710.726z"/>
		<path d="M1926.854,721.212c2.064,31.365,4.558,42.364-4.267,53.482c-13.983,17.501-57.442,20.531-60.094-19.801l-1.93-29.318
			L1926.854,721.212z M1911.392,742.592l-32.698,2.152c0.526,7.985,0.169,14.19,5.088,18.15c7.551,5.993,29.312,5.526,27.994-14.464
			L1911.392,742.592z"/>
		<path d="M1930.93,797.895c-0.985,29.114-0.476,40.971-5.616,48.143c-10.625,14.826-42.394,12.963-41.387-16.782l0.427-12.607
			l-20.506-0.694l0.687-20.307L1930.93,797.895z M1914.116,817.656l-14.234-0.482c-0.326,9.641-2.107,17.867,6.361,18.153
			C1914.937,835.622,1913.795,827.176,1914.116,817.656z"/>
		<path d="M1927.849,868.643c-4.719,35.154-4.873,42.748-9.824,49.229c-9.578,12.352-28.545,7.715-32.213-4.827
			c-5.909,12.29-25.732,4.798-32.008,7.864l2.684-19.991c10.545-1.748,23.01,4.509,24.876-9.393l1.137-8.47l-23.197-3.113
			l2.703-20.138L1927.849,868.643z M1909.845,886.727l-13.426-1.803c-1.463,10.905-4.057,19.052,4.228,20.164
			C1908.731,906.173,1908.587,896.094,1909.845,886.727z"/>
		<path d="M1865.658,1021.177l-35.175-9.945l3.523-12.46l6.803,1.199c-9.444-12.862-2.054-34.081,14.13-40.822
			c16.245-6.784,37.912,0.169,46.659,14.9c12.347,20.79-3.028,52.147-29.344,47.958l5.338-18.881
			c11.404,0.605,14.385-12.269,8.171-19.012c-4.315-4.647-28.037-15.79-33.13,2.225c-1.716,6.069-0.254,10.416,4.387,13.04
			l2.385-8.435l13.705,3.876L1865.658,1021.177z"/>
		<path d="M1889.277,1044.162c-11.72,29.164-14.234,40.161-27.002,46.362c-20.297,9.775-60.602-6.516-45.597-43.868l10.955-27.264
			L1889.277,1044.162z M1866.083,1056.74l-30.406-12.218c-2.957,7.358-5.995,12.855-3.272,18.563
			c4.267,8.783,24.06,17.59,31.497-0.917L1866.083,1056.74z"/>
		<path d="M1859.688,1115.144c-13.275,25.27-18.209,36.668-25.992,40.912c-16.172,8.813-43.723-6.933-29.972-33.11l5.866-11.167
			l-18.164-9.542l9.449-17.987L1859.688,1115.144z M1835.954,1125.628l-12.609-6.624c-4.486,8.54-9.666,15.174-2.165,19.113
			C1828.886,1142.166,1831.534,1134.042,1835.954,1125.628z"/>
		<path d="M1826.107,1177.55c-19.518,29.531-22.987,36.351-30.282,40.038c-14.094,6.993-29.039-5.582-26.896-18.374
			c-10.656,8.484-25.278-6.889-32.237-6.86l11.122-16.827c10.252,3.02,18.752,14.078,26.483,2.379l4.712-7.129l-19.526-12.905
			l11.203-16.951L1826.107,1177.55z M1802.025,1185.988l-11.301-7.469c-6.074,9.191-11.948,15.383-4.976,19.992
			C1792.561,1203.013,1796.828,1193.851,1802.025,1185.988z"/>
		<path d="M1703.781,1287.811l-27.362-24.236l8.585-9.692l5.606,4.035c-2.92-15.685,12.953-31.59,30.46-30.633
			c17.576,0.945,34.075,16.622,35.556,33.688c2.087,24.093-25.377,45.657-47.264,30.451l13.01-14.688
			c10.013,5.499,18.285-4.806,15.618-13.576c-1.906-6.181-18.471-26.315-30.808-12.386c-4.183,4.722-4.754,9.271-1.714,13.65
			l5.812-6.561l10.662,9.443L1703.781,1287.811z"/>
		<path d="M1715.141,1318.721c-23.196,21.215-30.223,30.035-44.417,30.096c-22.344,0.021-51.981-31.961-22.1-59.288l21.681-19.83
			L1715.141,1318.721z M1688.787,1320.013l-22.115-24.181c-5.749,5.259-10.972,8.945-10.989,15.315
			c0.042,9.646,14.01,26.329,28.788,12.813L1688.787,1320.013z"/>
		<path d="M1657.761,1369.878c-23.056,17.173-32.291,25.197-41.121,25.66c-18.307,0.953-36.478-25.116-12.718-42.812l10.117-7.535
			l-12.256-16.455l16.296-12.137L1657.761,1369.878z M1631.828,1369.075l-8.508-11.423c-7.737,5.762-15.275,9.505-10.214,16.3
			C1618.326,1380.961,1624.284,1374.694,1631.828,1369.075z"/>
		<path d="M1600.534,1411.63c-30.667,18.387-36.497,22.857-44.606,23.029c-15.714,0.221-23.786-17.564-16.321-28.189
			c-13.259,3.046-19.861-17.148-26.11-20.112l17.299-10.372c7.913,7.119,10.837,20.795,22.858,13.585l7.329-4.394l-12.036-20.074
			l17.426-10.449L1600.534,1411.63z M1575.169,1408.838l-6.965-11.617c-9.449,5.665-17.421,8.713-13.124,15.882
			C1559.288,1420.12,1567.166,1413.637,1575.169,1408.838z"/>
		<path d="M1442.52,1458.183l-14.174-33.693l11.936-5.021l3.308,6.064c4.158-15.405,25.351-22.87,40.718-14.427
			c15.461,8.474,23.509,29.766,17.467,45.761c-8.541,22.608-42.637,30.178-55.787,6.988l18.086-7.607
			c6.644,9.291,18.564,3.585,19.955-5.478c0.94-6.271-5.153-31.76-22.408-24.502c-5.814,2.445-8.299,6.301-7.454,11.563l8.079-3.398
			l5.522,13.129L1442.52,1458.183z"/>
		<path d="M1439.313,1490.975c-30.1,9.038-40.265,13.935-53.078,7.826c-20.288-9.754-32.743-51.42,5.832-63.003l28.141-8.45
			L1439.313,1490.975z M1415.012,1480.696l-9.424-31.384c-7.681,2.306-13.791,3.341-16.548,9.024
			c-4.147,8.698,1.176,29.803,20.369,24.042L1415.012,1480.696z"/>
		<path d="M1365.369,1512.144c-28.118,5.404-40.017,8.64-48.19,5.206c-16.897-7.109-21.912-38.488,7.182-44.08l12.389-2.381
			l-3.873-20.148l19.953-3.836L1365.369,1512.144z M1342.37,1500.134l-2.688-13.987c-9.465,1.82-17.889,1.907-16.29,10.231
			C1325.043,1504.965,1333.147,1501.907,1342.37,1500.134z"/>
		<path d="M1295.651,1524.823c-35.613,3.2-42.807,4.685-50.183,1.31c-14.296-6.668-13.724-26.193-2.419-32.483
			c-13.261-3.036-10.415-24.089-14.749-29.476l20.09-1.805c4.033,9.88,0.694,23.439,14.662,22.183l8.511-0.765l-2.095-23.313
			l20.237-1.818L1295.651,1524.823z M1274.033,1511.266l-1.213-13.491c-10.973,0.986-19.477,0.258-18.729,8.583
			C1254.823,1514.489,1264.655,1512.108,1274.033,1511.266z"/>
		<path d="M1133.17,1498.104l1.823-36.508l12.932,0.646l0.354,6.898c10.42-12.081,32.757-9.629,42.949,4.639
			c10.245,14.313,8.317,36.988-4.083,48.811c-17.487,16.67-51.5,8.733-53.308-17.871l19.597,0.979
			c1.962,11.252,15.178,11.273,20.358,3.709c3.587-5.278,9.088-30.859-9.581-31.792c-6.3-0.314-10.209,2.083-11.728,7.192
			l8.754,0.438l-0.711,14.226L1133.17,1498.104z"/>
		<path d="M1116.125,1526.293c-31.057-4.859-42.333-4.836-51.248-15.882c-13.909-17.353-7.652-60.575,32.489-54.295l29.029,4.542
			L1116.125,1526.293z M1098.653,1506.522l5.065-32.375c-7.924-1.24-13.881-2.947-18.823,0.986
			c-7.497,6.05-11.813,27.386,7.978,30.484L1098.653,1506.522z"/>
		<path d="M1040.295,1513.431c-27.693-7.274-39.824-9.498-45.709-16.126c-12.168-13.712-3.134-44.176,25.522-36.65l12.201,3.205
			l5.213-19.844l19.652,5.162L1040.295,1513.431z M1024.743,1492.663l3.619-13.775c-9.329-2.451-16.958-6.007-19.111,2.188
			C1007.04,1489.489,1015.529,1490.242,1024.743,1492.663z"/>
		<path d="M971.924,1494.738c-33.174-12.406-40.584-14.256-45.808-20.533c-9.978-12.167-1.07-29.55,11.875-30.332
			c-10.649-8.475,1.038-26.217-0.542-32.954l18.893,7.065c-0.642,10.661-9.516,21.431,3.62,26.343l8.004,2.993l8.199-21.923
			l19.031,7.117L971.924,1494.738z M958.3,1473.161l4.745-12.687c-10.389-3.886-17.671-8.196-20.599-0.366
			C939.587,1467.756,949.481,1469.863,958.3,1473.161z"/>
		<path d="M837.063,1400.146l17.524-32.078l11.363,6.207l-2.683,6.366c14.638-6.346,33.683,5.582,36.653,22.861
			c3.003,17.374-8.636,36.935-24.912,42.172c-23.002,7.404-50.17-14.545-40.224-39.281l17.219,9.406
			c-3.128,10.983,8.76,16.754,16.716,12.197c5.576-3.223,21.563-23.858,5.204-32.794c-5.535-3.024-10.098-2.566-13.689,1.374
			l7.692,4.202l-6.828,12.499L837.063,1400.146z"/>
		<path d="M809.412,1418.07c-25.837-17.894-36.004-22.787-39.218-36.612c-5.029-21.954,19.79-57.651,52.889-34.73l24.154,16.729
			L809.412,1418.07z M802.292,1392.664l18.657-26.938c-6.4-4.432-11.16-8.707-17.375-7.309c-9.395,2.186-22.555,19.514-6.092,30.916
			L802.292,1392.664z"/>
		<path d="M746.812,1373.526c-21.779-18.585-31.738-25.859-34.16-34.387c-4.999-17.632,16.379-41.148,38.913-21.919l9.596,8.189
			l13.318-15.607l15.456,13.188L746.812,1373.526z M741.83,1348.063l9.245-10.834c-7.332-6.257-12.661-12.782-18.163-6.334
			C727.198,1337.589,734.812,1342.075,741.83,1348.063z"/>
		<path d="M693.392,1327.024c-24.756-25.801-30.412-30.489-32.385-38.356c-3.717-15.281,11.838-27.099,23.846-22.189
			c-5.923-12.256,12.294-23.172,13.792-29.935l13.965,14.554c-5.198,9.331-17.864,15.188-8.153,25.311l5.917,6.166l16.889-16.205
			l14.067,14.661L693.392,1327.024z M690.464,1301.675l9.774-9.378c-7.607-7.928-12.366-15.051-18.405-9.257
			C675.924,1288.711,684.04,1294.98,690.464,1301.675z"/>
		<path d="M612.759,1183.422l29.666-21.356l7.565,10.509l-5.17,4.581c15.938,0.602,27.965,19.584,23.176,36.455
			c-4.801,16.967-23.748,29.576-40.689,27.268c-24.075-3.281-38.864-34.884-19.3-52.807l11.464,15.924
			c-7.569,8.556,0.664,18.896,9.805,18.223c6.319-0.488,29.809-12.122,18.864-27.325c-3.686-5.119-7.998-6.678-12.939-4.676
			l5.121,7.113l-11.559,8.321L612.759,1183.422z"/>
		<path d="M580.09,1187.67c-15.574-27.304-22.626-36.104-19.554-49.962c4.904-21.773,42.62-43.684,62.703-8.475l14.557,25.522
			L580.09,1187.67z M584.645,1161.682l28.464-16.235c-3.858-6.762-6.304-12.674-12.513-14.098
			c-9.393-2.082-28.78,7.843-18.85,25.251L584.645,1161.682z"/>
		<path d="M542.855,1120.404c-11.592-26.177-17.424-37.049-15.917-45.782c3.117-18.039,32.561-30.025,44.565-2.923l5.108,11.535
			l18.76-8.309l8.227,18.578L542.855,1120.404z M549.381,1095.292l13.023-5.767c-3.903-8.813-5.884-17.002-13.634-13.569
			C540.779,1079.494,545.573,1086.691,549.381,1095.292z"/>
		<path d="M514.789,1055.274c-11.087-33.918-14.169-40.678-12.536-48.609c3.282-15.392,22.428-19.272,31.112-9.646
			c-0.019-13.623,21.108-15.515,25.415-20.986l6.267,19.173c-8.724,6.148-22.684,5.933-18.327,19.266l2.655,8.122l22.248-7.271
			l6.313,19.313L514.789,1055.274z M523.15,1031.166l12.875-4.209c-3.423-10.472-4.622-18.923-12.566-16.325
			C515.705,1013.166,520.214,1022.183,523.15,1031.166z"/>
		<path d="M504.581,890.872l36.004-6.313l2.236,12.754l-6.648,1.873c14.088,7.484,16.65,29.806,4.996,42.909
			c-11.709,13.185-34.255,16.29-48.502,6.835c-20.125-13.352-19.932-48.283,5.612-55.942l3.389,19.327
			c-10.536,4.405-7.632,17.296,0.895,20.674c6.02,2.357,32.091,1.939,28.878-16.39c-1.089-6.212-4.294-9.493-9.613-9.842
			l1.514,8.633l-14.029,2.46L504.581,890.872z"/>
		<path d="M473.327,880.452c-2.135-31.361-4.655-42.354,4.145-53.492c13.891-17.467,57.385-20.775,60.139,19.664l1.996,29.314
			L473.327,880.452z M488.74,859.037l32.693-2.227c-0.545-8.001-0.199-14.188-5.128-18.138c-7.54-5.957-29.323-5.479-27.962,14.527
			L488.74,859.037z"/>
		<path d="M469.077,803.791c0.92-29.116,0.384-40.972,5.506-48.156c10.556-14.799,42.367-13.115,41.426,16.688l-0.398,12.609
			l20.507,0.647l-0.641,20.308L469.077,803.791z M485.845,783.992l14.236,0.449c0.304-9.642,2.066-17.872-6.403-18.139
			C484.932,766.025,486.141,774.621,485.845,783.992z"/>
		<path d="M472,733.005c4.677-35.45,4.803-42.796,9.712-49.252c9.621-12.467,28.557-7.675,32.224,4.753
			c5.878-12.302,25.725-4.856,31.989-7.936l-2.638,19.998c-10.516,1.766-23.021-4.446-24.855,9.448l-1.118,8.472l23.205,3.061
			l-2.657,20.144L472,733.005z M489.963,714.88l13.429,1.771c1.443-10.941,4.01-19.061-4.273-20.154
			C491.025,695.431,491.196,705.536,489.963,714.88z"/>
		<path d="M533.843,580.334l35.197,9.865l-3.495,12.468l-6.806-1.184c9.471,12.835,2.137,34.074-14.037,40.854
			c-16.228,6.82-37.913-0.083-46.693-14.794c-12.384-20.747,2.895-52.155,29.235-48.025l-5.295,18.893
			c-11.405-0.579-14.356,12.303-8.127,19.031c4.393,4.708,28.094,15.648,33.125-2.301c1.702-6.074,0.23-10.417-4.416-13.03
			l-2.366,8.439l-13.714-3.844L533.843,580.334z"/>
		<path d="M510.167,557.415c11.653-29.195,14.142-40.193,26.896-46.424c20.253-9.811,60.632,6.345,45.697,43.764l-10.893,27.289
			L510.167,557.415z M533.333,544.784l30.434,12.148c2.973-7.449,5.964-12.876,3.23-18.57c-4.308-8.818-24.122-17.482-31.495,0.989
			L533.333,544.784z"/>
		<path d="M539.599,486.353c13.257-25.374,18.128-36.709,25.899-40.97c16.071-8.808,43.765,6.785,30.047,33.041l-5.841,11.181
			l18.186,9.5l-9.408,18.009L539.599,486.353z M563.308,475.815l12.624,6.595c4.467-8.55,9.632-15.195,2.122-19.119
			C570.298,459.24,567.649,467.506,563.308,475.815z"/>
		<path d="M573.022,423.894c19.606-29.815,22.971-36.439,30.19-40.108c14.076-7.027,29.051,5.516,26.938,18.312
			c10.64-8.508,25.292,6.829,32.253,6.786l-11.083,16.853c-10.237-2.991-18.789-14.028-26.489-2.318l-4.695,7.14l19.556,12.861
			l-11.164,16.976L573.022,423.894z M597.085,415.399l11.317,7.442c6.073-9.235,11.904-15.418,4.93-20.003
			C606.511,398.352,602.264,407.525,597.085,415.399z"/>
		<path d="M695.1,313.348l27.418,24.174l-8.563,9.712l-5.616-4.022c2.957,15.678-12.88,31.62-30.389,30.702
			c-17.609-0.907-34.116-16.577-35.632-33.607c-2.142-24.049,25.252-45.727,47.193-30.559l-12.977,14.718
			c-10.022-5.476-18.275,4.845-15.586,13.611c1.881,6.052,18.447,26.367,30.836,12.315c4.171-4.731,4.732-9.283,1.682-13.654
			l-5.797,6.574l-10.683-9.419L695.1,313.348z"/>
		<path d="M683.694,282.439c23.148-21.266,30.155-30.102,44.349-30.195c22.427-0.072,51.97,31.918,22.233,59.238l-21.637,19.878
			L683.694,282.439z M710.044,281.088l22.169,24.131c5.733-5.267,10.952-8.969,10.955-15.339
			c-0.063-9.637-14.07-26.298-28.816-12.749L710.044,281.088z"/>
		<path d="M740.929,231.178c22.921-17.153,32.213-25.27,41.062-25.753c18.305-0.997,36.537,25.031,12.816,42.782l-10.1,7.559
			l12.293,16.427l-16.268,12.174L740.929,231.178z M766.864,231.922l8.534,11.403c7.724-5.78,15.253-9.54,10.176-16.324
			C780.363,220.038,774.493,226.213,766.864,231.922z"/>
		<path d="M798.083,189.278c30.625-18.457,36.445-22.94,44.554-23.129c15.724-0.257,23.82,17.522,16.384,28.152
			c13.261-3.073,19.894,17.103,26.157,20.054l-17.276,10.412c-7.95-7.129-10.881-20.769-22.889-13.534l-7.319,4.411l12.081,20.047
			l-17.402,10.488L798.083,189.278z M823.455,192.013l6.992,11.602c9.467-5.705,17.396-8.762,13.087-15.911
			C839.319,180.71,831.527,187.148,823.455,192.013z"/>
		<path d="M955.979,142.374l14.25,33.661l-11.923,5.048l-3.321-6.057c-4.122,15.413-25.3,22.927-40.685,14.521
			c-15.482-8.441-23.577-29.712-17.572-45.721c8.495-22.644,42.573-30.262,55.771-7.117l-18.069,7.65
			c-6.664-9.275-18.571-3.544-19.942,5.522c-0.946,6.417,5.347,31.698,22.465,24.451c5.808-2.459,8.284-6.319,7.427-11.581
			l-8.071,3.417l-5.552-13.116L955.979,142.374z"/>
		<path d="M959.124,109.568c30.083-9.108,40.233-14.027,53.06-7.948c20.304,9.704,32.871,51.341-5.688,63.017l-28.122,8.514
			L959.124,109.568z M983.448,119.791l9.495,31.362c7.676-2.324,13.784-3.373,16.528-9.063c4.124-8.701-1.244-29.802-20.424-23.995
			L983.448,119.791z"/>
		<path d="M1032.999,88.236c28.101-5.469,39.999-8.732,48.177-5.316c16.915,7.069,22.003,38.437-7.08,44.096l-12.383,2.41
			l3.919,20.14l-19.944,3.881L1032.999,88.236z M1056.025,100.193l2.721,13.98c9.461-1.841,17.885-1.947,16.266-10.268
			C1073.349,95.361,1065.356,98.377,1056.025,100.193z"/>
		<path d="M1102.697,75.395c35.533-3.274,42.809-4.777,50.18-1.423c14.268,6.616,13.817,26.145,2.493,32.478
			c13.221,2.994,10.545,24.154,14.815,29.442l-20.085,1.851c-4.048-9.864-0.758-23.435-14.712-22.149l-8.509,0.784l2.147,23.307
			l-20.232,1.864L1102.697,75.395z M1124.346,88.903l1.243,13.489c10.971-1.011,19.476-0.302,18.709-8.625
			C1143.549,85.636,1133.723,88.039,1124.346,88.903z"/>
	</g>
</g>
</svg>
